<?xml version="1.0" encoding="utf-8"?><svg version="1.1" id="Layer_1" xmlns="http://www.w3.org/2000/svg" xmlns:xlink="http://www.w3.org/1999/xlink" x="0px" y="0px" viewBox="0 0 122.88 92.15" style="enable-background:new 0 0 122.88 92.15" xml:space="preserve"><g><path d="M101.93,57.44c-0.98-0.96-0.99-2.54-0.03-3.52c0.96-0.98,2.54-0.99,3.52-0.03l6.86,6.78c0.98,0.96,0.99,2.54,0.03,3.52 c-0.96,0.98-2.54,0.99-3.52,0.03L101.93,57.44L101.93,57.44z M2.8,66.32c-1.54,0.01-2.79-1.24-2.8-2.78 c-0.01-1.54,1.24-2.79,2.78-2.8l32.47-0.16c0.04,0,0.09,0,0.13,0v0c4.71,0.21,7.36-1.05,8.43-2.74c0.44-0.7,0.6-1.51,0.51-2.31 c-0.1-0.83-0.48-1.66-1.1-2.36c-1.36-1.52-3.87-2.37-7.24-1.47c-1.49,0.4-3.02-0.49-3.42-1.98c-0.4-1.49,0.49-3.02,1.98-3.42 c5.72-1.53,10.24,0.21,12.86,3.15c1.39,1.56,2.24,3.47,2.47,5.44c0.24,2.01-0.18,4.08-1.34,5.92c-2.04,3.23-6.35,5.65-13.38,5.34 L2.8,66.32L2.8,66.32z M10.25,77.17c-1.55,0-2.8-1.25-2.8-2.8s1.25-2.8,2.8-2.8h14.68l0.02,0c6.84-0.38,11.08,1.97,13.13,5.17 c1.19,1.86,1.63,3.97,1.4,6.03c-0.22,2.01-1.07,3.97-2.48,5.58c-2.61,2.99-7.1,4.77-12.8,3.25c-1.49-0.4-2.38-1.93-1.98-3.42 c0.4-1.49,1.93-2.38,3.42-1.98c3.34,0.89,5.81,0.02,7.16-1.52c0.64-0.73,1.02-1.61,1.12-2.5c0.09-0.84-0.08-1.69-0.55-2.42 c-1.06-1.66-3.62-2.85-8.1-2.61c-0.11,0.01-0.23,0.02-0.35,0.02H10.25L10.25,77.17z M22.58,47.23c-0.28,1.52-1.74,2.51-3.26,2.23 c-1.52-0.28-2.51-1.74-2.23-3.26c1.43-7.55,5.23-13.29,10.23-17.17c4.28-3.32,9.44-5.26,14.76-5.77 c5.28-0.51,10.73,0.39,15.61,2.73c1.54,0.74,3.02,1.62,4.42,2.64c1.69-2.06,3.77-3.79,6.13-5.09c2.96-1.62,6.34-2.54,9.92-2.54 c5.72,0,10.9,2.32,14.65,6.07c3.75,3.75,6.07,8.93,6.07,14.65c0,2.52-0.45,4.94-1.29,7.19c-0.86,2.33-2.13,4.46-3.72,6.3 c-0.08,0.09-0.16,0.17-0.24,0.25c0.37,1.86,0.54,3.78,0.52,5.69c-0.05,4.79-1.35,9.57-3.99,13.08c-1.72,2.29-3.93,4.16-6.58,5.64 c-2.56,1.43-5.53,2.51-8.87,3.29l-0.62,0.08H54.14c-1.55,0-2.8-1.25-2.8-2.8c0-1.55,1.25-2.8,2.8-2.8h19.64 c2.68-0.65,5.05-1.52,7.06-2.65c2-1.12,3.63-2.48,4.86-4.11c1.9-2.53,2.83-6.11,2.87-9.78c0.04-3.85-0.89-7.72-2.73-10.53 c-0.53-0.81-1.1-1.54-1.71-2.2c-2.74-2.95-6.23-4.24-9.84-4.27c-2.63-0.02-5.33,0.61-7.91,1.75c-0.57,0.28-1.14,0.59-1.71,0.92 c-1.71,1-3.4,2.23-5.12,3.63l-3.67-4.21c1.27-1.18,2.65-2.25,4.11-3.2c1.17-0.76,2.38-1.43,3.63-2.01c0.5-0.25,1-0.49,1.52-0.71 c-2.43-4.29-5.91-7.37-9.86-9.27c-3.95-1.9-8.37-2.62-12.68-2.21c-4.28,0.41-8.43,1.97-11.87,4.63 C26.76,36.53,23.74,41.13,22.58,47.23L22.58,47.23z M66.27,32.37c1.7,1.86,3.19,4.01,4.42,6.45c1.21-0.19,2.43-0.29,3.64-0.28 c5.1,0.03,10.03,1.86,13.91,6.04c0.81,0.87,1.58,1.86,2.3,2.96c0.31,0.48,0.6,0.98,0.88,1.5c0.36-0.65,0.67-1.34,0.94-2.04 c0.6-1.63,0.94-3.41,0.94-5.26c0-4.18-1.69-7.96-4.43-10.69c-2.74-2.74-6.52-4.43-10.69-4.43c-2.64,0-5.11,0.67-7.25,1.84 C69.11,29.43,67.53,30.77,66.27,32.37L66.27,32.37z M51.83,14.44c-0.98-0.96-0.99-2.54-0.03-3.52c0.96-0.98,2.54-0.99,3.52-0.03 l6.86,6.78c0.98,0.96,0.99,2.54,0.03,3.52c-0.96,0.98-2.54,0.99-3.52,0.03L51.83,14.44L51.83,14.44z M78.83,2.5 c-0.01-1.37,1.1-2.49,2.48-2.5c1.37-0.01,2.49,1.1,2.5,2.48l0.06,9.65c0.01,1.37-1.1,2.49-2.48,2.5c-1.37,0.01-2.49-1.1-2.5-2.48 L78.83,2.5L78.83,2.5z M106.62,11.96c0.98-0.96,2.56-0.95,3.52,0.03c0.96,0.98,0.95,2.56-0.03,3.52l-6.86,6.78 c-0.98,0.96-2.56,0.95-3.52-0.03c-0.96-0.98-0.95-2.56,0.03-3.52L106.62,11.96L106.62,11.96z M120.38,38.42 c1.37-0.01,2.49,1.1,2.5,2.48c0.01,1.37-1.1,2.49-2.48,2.5l-9.65,0.06c-1.37,0.01-2.49-1.1-2.5-2.48c-0.01-1.37,1.1-2.49,2.48-2.5 L120.38,38.42L120.38,38.42z"/></g></svg>