<?xml version="1.0" encoding="utf-8"?><svg version="1.1" id="Layer_1" xmlns="http://www.w3.org/2000/svg" xmlns:xlink="http://www.w3.org/1999/xlink" x="0px" y="0px" viewBox="0 0 118.38 122.88" style="enable-background:new 0 0 118.38 122.88" xml:space="preserve"><style type="text/css">.st0{fill-rule:evenodd;clip-rule:evenodd;}</style><g><path class="st0" d="M22.42,89.17c1.31,6.1,5.26,9.15,5.26,12.19c0,3.05-1.31,6.1-5.26,6.1c-3.94,0-5.26-3.05-5.26-6.1 C17.16,98.31,21.11,95.26,22.42,89.17L22.42,89.17z M61.53,30.2c0,0.1-0.01,0.19-0.02,0.28c3.79,2.6,7.05,6.2,9.37,10.8 c1.23-0.19,2.46-0.29,3.69-0.28c5.17,0.03,10.17,1.89,14.1,6.12c0.82,0.89,1.6,1.89,2.33,3c1.22,1.87,2.14,4.05,2.76,6.38 c0.05-0.02,0.11-0.03,0.17-0.04c4.88-1.03,9.27-3.38,12.78-6.67c2.06-1.93,3.82-4.19,5.19-6.68c-0.74,0.33-1.49,0.63-2.26,0.89 c-2.79,0.96-5.78,1.48-8.89,1.48c-7.56,0-14.4-3.06-19.35-8.02c-4.95-4.95-8.02-11.79-8.02-19.35c0-3.23,0.56-6.33,1.59-9.2 c0.31-0.87,0.67-1.72,1.06-2.56c-3.47,1.8-6.5,4.33-8.88,7.39C63.63,18.29,61.53,24,61.53,30.2L61.53,30.2z M57.34,28.11 c0.42-6.37,2.77-12.23,6.46-16.98c4.18-5.38,10.1-9.35,16.91-11.07c1.14-0.28,2.29,0.41,2.58,1.55c0.18,0.73-0.03,1.46-0.51,1.97 c-1.62,1.99-2.91,4.28-3.8,6.76c-0.87,2.43-1.34,5.04-1.34,7.77c0,6.38,2.59,12.16,6.77,16.34c4.18,4.18,9.96,6.77,16.34,6.77 c2.63,0,5.16-0.44,7.51-1.24c2.45-0.84,4.71-2.07,6.69-3.62c0.92-0.72,2.26-0.56,2.98,0.37c0.43,0.55,0.55,1.25,0.37,1.88l0,0 c-1.55,5.54-4.6,10.46-8.69,14.28c-4.07,3.81-9.16,6.54-14.82,7.73c-0.09,0.02-0.18,0.03-0.27,0.04c0.11,1.09,0.17,2.18,0.15,3.28 c-0.05,4.86-1.37,9.7-4.05,13.26c-1.32,1.76-2.93,3.27-4.81,4.56c-1.82,1.25-3.89,2.28-6.2,3.13c-1.47,0.53-3.09-0.23-3.63-1.7 c-0.53-1.47,0.23-3.09,1.7-3.63c1.85-0.68,3.51-1.5,4.94-2.48c1.38-0.95,2.54-2.03,3.48-3.27c1.93-2.56,2.87-6.19,2.91-9.92 c0.04-3.9-0.91-7.83-2.76-10.68c-0.53-0.82-1.11-1.56-1.73-2.23c-2.78-2.99-6.31-4.3-9.98-4.33c-2.66-0.02-5.41,0.62-8.02,1.78 c-0.58,0.29-1.16,0.6-1.74,0.94c-1.74,1.01-3.45,2.26-5.19,3.68l-3.73-4.27c1.29-1.19,2.68-2.28,4.16-3.24 c1.18-0.77,2.41-1.45,3.68-2.04c0.51-0.25,1.02-0.49,1.54-0.72c-2.46-4.35-6-7.48-10-9.4c-4.01-1.92-8.49-2.66-12.86-2.24 c-4.34,0.42-8.55,1.99-12.04,4.7c-4.03,3.12-7.09,7.79-8.27,13.98l-0.37,1.93l-1.93,0.34c-1.89,0.33-3.57,0.79-5.05,1.36 c-1.43,0.56-2.71,1.24-3.83,2.05c-0.89,0.65-1.67,1.37-2.32,2.16c-2.03,2.43-2.97,5.47-2.95,8.55c0.02,3.13,1.04,6.29,2.92,8.89 c0.7,0.96,1.51,1.85,2.44,2.62c0.94,0.78,1.99,1.42,3.18,1.91c1.24,0.51,2.63,0.87,4.17,1.07c1.55,0.2,2.65,1.61,2.45,3.16 c-0.2,1.55-1.61,2.65-3.16,2.45c-2.06-0.26-3.93-0.75-5.61-1.45c-1.75-0.72-3.3-1.66-4.66-2.8c-1.29-1.08-2.43-2.31-3.39-3.64 C1.42,74.88,0.03,70.54,0,66.23c-0.03-4.36,1.33-8.7,4.25-12.21c0.95-1.14,2.06-2.19,3.34-3.11c1.49-1.08,3.19-1.99,5.11-2.74 c1.33-0.52,2.74-0.95,4.24-1.29c1.69-6.73,5.31-11.92,9.95-15.52c4.34-3.37,9.58-5.33,14.96-5.85C47.1,25,52.48,25.86,57.34,28.11 L57.34,28.11z M48.04,101.87l6.54-23.34h16.74L65.5,90.76l9.93,0.19l-24.21,31.93l4.66-21.01H48.04L48.04,101.87z M34.94,74.12 c1.14,5.3,4.57,7.95,4.57,10.6c0,2.65-1.14,5.3-4.57,5.3c-3.43,0-4.57-2.65-4.57-5.3C30.37,82.07,33.8,79.42,34.94,74.12 L34.94,74.12z M37.91,95.62c1.31,6.1,5.26,9.15,5.26,12.19c0,3.05-1.31,6.1-5.26,6.1c-3.94,0-5.26-3.05-5.26-6.1 C32.65,104.77,36.59,101.72,37.91,95.62L37.91,95.62z"/></g></svg>